<svg width="1440" height="1024" viewBox="0 0 1440 1024" fill="none" xmlns="http://www.w3.org/2000/svg">
<path d="M3.38759e-06 0H1440V596H3.38759e-06V0Z" fill="#8D6B94"/>
<path d="M238.279 385.256C55.4941 408.451 25.1761 442.769 -6.52154e-06 491L-4.35489e-05 1024L1440 1024V177.5C1376.06 187.332 1304.41 204.405 1086 177.5C814.77 144.088 722.351 201.464 638.569 244.002C623.622 251.591 466.759 356.263 238.279 385.256Z" fill="#B185A7"/>
<path d="M656.488 698.085C259.862 598.809 192 720.5 -6.10352e-05 788.5L-4.35489e-05 1024L1440 1024V605.67C1245.95 712.993 1053.11 797.362 656.488 698.085Z" fill="#C3A29E"/>
</svg>
